<svg width="58" height="58" viewBox="0 0 58 58" fill="none" xmlns="http://www.w3.org/2000/svg">
<circle cx="29" cy="29" r="29" fill="#DEFBDD"/>
<g clip-path="url(#clip0_99_204)">
<path d="M43.5 20.5H32.5C32.2239 20.5 32 20.7239 32 21V33H29.5V32.5H30C30.2761 32.5 30.5 32.2761 30.5 32C30.5 31.7239 30.2761 31.5 30 31.5H25C24.7239 31.5 24.5 31.7239 24.5 32C24.5 32.2761 24.7239 32.5 25 32.5H25.5V33H20.5V32.5H21C21.2761 32.5 21.5 32.2761 21.5 32C21.5 31.7239 21.2761 31.5 21 31.5H16C15.7239 31.5 15.5 31.7239 15.5 32C15.5 32.2761 15.7239 32.5 16 32.5H16.5V33H14.5C14.2239 33 14 33.2239 14 33.5V43.5C14 43.7761 14.2239 44 14.5 44H43.5C43.7761 44 44 43.7761 44 43.5V21C44 20.7239 43.7761 20.5 43.5 20.5ZM26.5 32.5H28.5V33H26.5V32.5ZM17.5 32.5H19.5V33H17.5V32.5ZM22 43H15V37H22V43ZM22 36H15V34H22V36ZM32 43H23V34H32V43ZM43 43H33V29.5H43V43ZM43 28.5H33V21.5H43V28.5Z" fill="#228B22"/>
<path d="M24.5 42H30.5C30.7761 42 31 41.7761 31 41.5V35.5C31 35.2239 30.7761 35 30.5 35H24.5C24.2239 35 24 35.2239 24 35.5V41.5C24 41.7761 24.2239 42 24.5 42ZM25 36H30V41H25V36Z" fill="#228B22"/>
<path d="M34 28C34.2761 28 34.5 27.7761 34.5 27.5V25.5C34.5 25.2239 34.2761 25 34 25C33.7239 25 33.5 25.2239 33.5 25.5V27.5C33.5 27.7761 33.7239 28 34 28Z" fill="#228B22"/>
<path d="M34 33C34.2761 33 34.5 32.7761 34.5 32.5V30.5C34.5 30.2239 34.2761 30 34 30C33.7239 30 33.5 30.2239 33.5 30.5V32.5C33.5 32.7761 33.7239 33 34 33Z" fill="#228B22"/>
<path d="M15.1788 22.8837C15.2689 22.959 15.3826 23.0001 15.5 23H30.5C30.7761 23.0004 31.0003 22.7769 31.0008 22.5007C31.0009 22.3834 30.9598 22.2696 30.8845 22.1795L25.8845 16.1795C25.7893 16.0656 25.6484 15.9998 25.5 16H25V14.5C25 14.2239 24.7761 14 24.5 14H21.5C21.2239 14 21 14.2239 21 14.5V16H20.5C20.3516 15.9998 20.2107 16.0656 20.1155 16.1795L15.1155 22.1795C14.9385 22.3914 14.9668 22.7067 15.1788 22.8837ZM22 15H24V16H22V15ZM20.7345 17H25.2655L29.4325 22H16.5675L20.7345 17Z" fill="#228B22"/>
</g>
<defs>
<clipPath id="clip0_99_204">
<rect width="30" height="30" fill="white" transform="translate(14 14)"/>
</clipPath>
</defs>
</svg>
