<svg width="29" height="34" viewBox="0 0 29 34" fill="none" xmlns="http://www.w3.org/2000/svg">
<path d="M16.4926 10.604C16.2981 10.7985 16.2981 11.1138 16.4926 11.3083C16.5898 11.4055 16.7173 11.4542 16.8447 11.4542C16.9721 11.4542 17.0996 11.4055 17.1969 11.3083L17.732 10.7731C17.9265 10.5786 17.9265 10.2632 17.732 10.0688C17.5375 9.87429 17.2222 9.87429 17.0277 10.0688L16.4926 10.604Z" fill="#228B22"/>
<path d="M15.923 9.07733H16.6797C16.9548 9.07733 17.1778 8.85434 17.1778 8.57928C17.1778 8.30423 16.9548 8.08124 16.6797 8.08124H15.923C15.6479 8.08124 15.4249 8.30423 15.4249 8.57928C15.4249 8.85434 15.6479 9.07733 15.923 9.07733Z" fill="#228B22"/>
<path d="M4.51235 7.96455C5.53195 8.84862 6.80197 9.2861 8.07013 9.2861C9.47051 9.28604 10.8686 8.75246 11.9235 7.69753C13.9337 5.68735 14.0509 2.43205 12.1905 0.286462C12.04 0.112943 11.8221 0.00875117 11.5925 0.000583196C11.3624 -0.00811602 11.138 0.0808684 10.9757 0.243232L9.48445 1.73445C9.28995 1.92895 9.28995 2.24425 9.48445 2.43876C9.67896 2.63333 9.99432 2.63326 10.1888 2.43876L11.5517 1.07583C12.9515 2.82743 12.8192 5.39304 11.219 6.99316C9.61886 8.59322 7.05325 8.7255 5.30166 7.32586L8.52853 4.09891C8.72304 3.90441 8.72304 3.58904 8.52853 3.39461C8.33403 3.2001 8.01867 3.2001 7.82423 3.39461L4.46905 6.74978C4.30669 6.91215 4.2183 7.13693 4.22647 7.3665C4.23464 7.59606 4.33883 7.81401 4.51235 7.96455Z" fill="#228B22"/>
<path d="M9.34534 5.21485C9.15084 5.40935 9.15084 5.72471 9.34534 5.91915L9.82267 6.39648C9.91989 6.4937 10.0474 6.54238 10.1748 6.54238C10.3023 6.54238 10.4298 6.49377 10.527 6.39648C10.7215 6.20198 10.7215 5.88661 10.527 5.69218L10.0496 5.21485C9.85514 5.02034 9.53978 5.02034 9.34534 5.21485Z" fill="#228B22"/>
<path d="M8.05481 5.69348C7.77975 5.69348 7.55676 5.91647 7.55676 6.19153V6.86655C7.55676 7.1416 7.77975 7.36459 8.05481 7.36459C8.32986 7.36459 8.55286 7.1416 8.55286 6.86655V6.19153C8.55286 5.91647 8.32986 5.69348 8.05481 5.69348Z" fill="#228B22"/>
<path d="M10.4175 4.46191H11.0926C11.3676 4.46191 11.5906 4.23892 11.5906 3.96387C11.5906 3.68881 11.3676 3.46582 11.0926 3.46582H10.4175C10.1424 3.46582 9.91943 3.68881 9.91943 3.96387C9.91943 4.23892 10.1424 4.46191 10.4175 4.46191Z" fill="#228B22"/>
<path d="M26.5035 20.5847H25.4946C25.4754 20.5097 25.4541 20.4346 25.4282 20.3591C27.0738 19.9773 28.1732 18.9792 28.1732 17.7998C28.1732 17.0112 27.6789 16.2901 26.8195 15.7841C28.308 14.1643 28.5084 11.8863 27.2409 10.6189C26.9952 10.3732 26.7113 10.1834 26.4019 10.0467C26.3808 9.24942 26.1595 8.46948 25.758 7.7835C25.6191 7.5461 25.3139 7.46628 25.0766 7.60527C24.8392 7.74419 24.7595 8.04926 24.8984 8.28666C25.1683 8.74792 25.3351 9.26337 25.3889 9.79548C25.1553 9.77649 24.916 9.78087 24.6741 9.80843C24.4934 8.30931 23.2144 7.14348 21.6674 7.14348C20.8105 7.14348 20.0365 7.50187 19.4851 8.07569L18.9826 7.57326C19.663 6.87068 20.6145 6.43227 21.6674 6.43227C22.2768 6.43227 22.8814 6.58195 23.4159 6.86517C23.6589 6.99393 23.9603 6.90136 24.0891 6.65831C24.218 6.41527 24.1253 6.11385 23.8823 5.98502C23.2047 5.62596 22.4388 5.43617 21.6674 5.43617C20.3398 5.43617 19.139 5.98602 18.2784 6.86909L15.9808 4.57137C15.8195 4.41013 15.5973 4.32101 15.3683 4.32898C15.1391 4.33622 14.9205 4.43928 14.7686 4.61174C13.3836 6.18424 12.9641 8.29789 13.4834 10.2003C12.9161 10.3753 12.408 10.8165 12.024 11.4687C11.2797 10.7823 10.3763 10.345 9.45866 10.2309C8.78802 10.1474 8.16181 10.2422 7.62625 10.4981C6.83508 9.90399 5.85393 9.55011 4.79063 9.55011C2.17881 9.55011 0.0539422 11.675 0.0539422 14.2868C0.0539422 15.9472 0.913372 17.4096 2.21015 18.2554C2.08478 18.494 1.99898 18.7514 1.96193 19.0232C1.88735 19.5703 2.01678 20.1076 2.29973 20.5847H1.16246C0.844708 20.5847 0.536981 20.7168 0.318106 20.9471C0.097704 21.1791 -0.0147217 21.4823 0.00154786 21.8008C0.137083 24.4528 1.02673 26.9941 2.57426 29.15C4.09018 31.262 6.15688 32.9007 8.55095 33.8893C8.72892 33.9627 8.91911 34 9.11647 34H18.5495C18.7468 34 18.9371 33.9627 19.1151 33.8893C21.5091 32.9008 23.5758 31.262 25.0918 29.15C26.6393 26.9941 27.5289 24.4527 27.6645 21.8008C27.6807 21.4823 27.5683 21.1791 27.3479 20.9471C27.129 20.7168 26.8213 20.5847 26.5035 20.5847ZM21.6674 8.13964C22.7449 8.13964 23.6288 8.98213 23.6961 10.0428C23.2018 10.2243 22.7183 10.5001 22.2759 10.8666L20.1891 8.77986C20.5601 8.38621 21.0853 8.13964 21.6674 8.13964ZM21.47 12.093C21.5334 12.2596 21.6809 12.3796 21.857 12.4078C22.0329 12.4357 22.2106 12.3678 22.3227 12.2293C22.4185 12.1109 22.5186 11.9993 22.6203 11.8976C23.8585 10.6595 25.6154 10.4019 26.5366 11.3232C27.4579 12.2445 27.2003 14.0013 25.9621 15.2395C25.8622 15.3394 25.7523 15.4382 25.6356 15.5329C25.4972 15.6451 25.4294 15.8227 25.4577 15.9986C25.4859 16.1744 25.6058 16.3218 25.7723 16.3851C26.6388 16.7148 27.1772 17.2569 27.1772 17.7997C27.1772 18.5854 26.0899 19.3104 24.6481 19.486C24.4822 19.5062 24.3375 19.6083 24.2628 19.7577C24.1881 19.9072 24.1933 20.0842 24.2767 20.229C24.3462 20.3496 24.4032 20.4685 24.4487 20.5847H24.2558L21.1176 17.4465L23.9441 14.6201C24.1386 14.4256 24.1386 14.1102 23.9441 13.9158C23.7495 13.7213 23.4342 13.7213 23.2397 13.9158L20.4133 16.7422L18.1255 14.4545C17.9593 14.2883 17.73 14.1979 17.4941 14.2055C17.2585 14.2135 17.0345 14.32 16.8794 14.4976C16.4427 14.998 16.1046 15.5534 15.8623 16.1389C15.6857 15.6457 15.5956 15.1555 15.6032 14.7049C15.6093 14.3371 15.6917 13.6787 16.1738 13.4003C16.3126 13.3202 16.4763 13.2806 16.6574 13.2806C16.9471 13.2806 17.281 13.3821 17.6274 13.581C17.7721 13.6642 17.9488 13.6693 18.098 13.5946C18.2473 13.52 18.3493 13.3756 18.3697 13.21C18.5467 11.772 19.2713 10.6876 20.0552 10.6876C20.5982 10.6875 21.1403 11.2261 21.47 12.093ZM22.7414 20.479C22.6832 20.517 22.6237 20.5522 22.5631 20.5847H20.2747C20.0706 20.4754 19.8788 20.3352 19.7069 20.1633C18.8838 19.3402 18.7786 18.067 19.3911 17.1288L22.7414 20.479ZM12.8361 18.0113C11.3206 18.0113 10.0616 19.1299 9.84103 20.5847H9.1243C9.35002 18.7365 10.928 17.3 12.8361 17.3C14.7442 17.3 16.3221 18.7365 16.5479 20.5847H15.8311C15.6106 19.1298 14.3515 18.0113 12.8361 18.0113ZM14.8172 20.5847H10.855C11.0626 19.6824 11.8717 19.0074 12.8361 19.0074C13.8004 19.0074 14.6097 19.6824 14.8172 20.5847ZM16.4249 17.9545C16.5184 16.9954 16.8846 16.0571 17.5313 15.2689L18.6763 16.4139C17.7559 17.6509 17.7805 19.3736 18.75 20.5847H17.5504C17.4544 19.5851 17.0461 18.6759 16.4249 17.9545ZM15.4033 5.40264L19.7221 9.72137C18.6924 9.90691 17.8436 10.946 17.4973 12.4303C17.2934 12.3609 17.0914 12.3157 16.8927 12.2953C16.7368 12.2793 16.5839 12.2802 16.4355 12.2959C16.0469 11.1763 15.3472 10.3943 14.5146 10.1771C13.9923 8.58064 14.2811 6.76842 15.4033 5.40264ZM7.55805 11.747C7.98743 11.3176 8.61882 11.1302 9.33581 11.2194C10.0991 11.3143 10.8586 11.7057 11.4743 12.3214C11.5762 12.4234 11.6763 12.5349 11.7719 12.6531C11.884 12.7917 12.0618 12.8595 12.2377 12.8316C12.4137 12.8035 12.5613 12.6835 12.6246 12.5169C12.9544 11.6499 13.4965 11.1114 14.0395 11.1114C14.6314 11.1114 15.1891 11.7299 15.5031 12.6518C14.9393 13.0654 14.6225 13.7788 14.6071 14.6881C14.5955 15.3806 14.7622 16.1361 15.0823 16.8715C14.4135 16.5097 13.6484 16.3039 12.8361 16.3039C12.8306 16.3039 12.8251 16.3043 12.8196 16.3043L10.8549 14.3395C10.6603 14.145 10.345 14.145 10.1505 14.3395C9.95604 14.534 9.95604 14.8494 10.1505 15.0438L11.5807 16.474C10.0268 16.9017 8.78962 18.1019 8.31229 19.6348C7.47125 19.3136 6.91743 18.7841 6.91743 18.2234C6.91743 17.6806 7.45572 17.1385 8.32232 16.8088C8.48873 16.7455 8.60873 16.5981 8.63695 16.4223C8.66517 16.2464 8.59737 16.0689 8.45905 15.9567C8.34217 15.8618 8.23227 15.7631 8.13246 15.6632C7.51668 15.0474 7.12528 14.2879 7.03032 13.5247C6.9412 12.8078 7.1286 12.1765 7.55805 11.747ZM3.66199 15.9755C3.11733 15.6104 2.75734 14.9904 2.75734 14.2868C2.75734 13.1657 3.6695 12.2535 4.79063 12.2535C5.26484 12.2535 5.7008 12.4175 6.04691 12.6907C6.02904 12.8154 6.01775 12.9427 6.01397 13.0726C5.50297 13.0842 5.01622 13.2379 4.60841 13.5479C3.89767 14.0881 3.57009 14.9979 3.66199 15.9755ZM4.65111 17.7192C4.8083 17.6908 4.94237 17.5889 5.01163 17.4449C5.08083 17.301 5.07684 17.1326 5.00088 16.9921C4.44758 15.9691 4.53603 14.8541 5.21112 14.341C5.46851 14.1453 5.78181 14.056 6.11604 14.061C6.29374 14.8319 6.69443 15.577 7.27489 16.2081C6.41553 16.7139 5.92133 17.4352 5.92133 18.2236C5.92133 19.2364 6.73255 20.1148 8.00357 20.5848H3.56889C3.12231 20.1898 2.87793 19.6785 2.94886 19.1578C3.04495 18.4528 3.71313 17.8881 4.65111 17.7192ZM1.05004 14.2868C1.05004 12.2242 2.72806 10.5462 4.79063 10.5462C5.5213 10.5462 6.20329 10.7574 6.7799 11.1211C6.61667 11.2974 6.47822 11.4916 6.36606 11.7015C5.90672 11.4202 5.36757 11.2574 4.79063 11.2574C3.12025 11.2574 1.76125 12.6164 1.76125 14.2868C1.76125 15.5065 2.48614 16.5598 3.52759 17.0395C3.27292 17.1603 3.04189 17.3073 2.84061 17.4774C1.76742 16.8193 1.05004 15.6353 1.05004 14.2868ZM26.4177 23.7077H21.7234C21.4483 23.7077 21.2253 23.9306 21.2253 24.2057C21.2253 24.4808 21.4483 24.7037 21.7234 24.7037H26.1691C25.7652 26.0819 25.1304 27.3879 24.2825 28.5691C22.8752 30.5298 20.9568 32.0511 18.7349 32.9685C18.6781 32.9919 18.6157 33.0038 18.5495 33.0038H9.11647C9.05026 33.0038 8.98791 32.9919 8.93113 32.9685C6.70918 32.0511 4.79083 30.5298 3.38348 28.5691C2.53561 27.3878 1.90077 26.0818 1.49695 24.7037H19.3327C19.6078 24.7037 19.8308 24.4807 19.8308 24.2056C19.8308 23.9306 19.6078 23.7076 19.3327 23.7076H1.24832C1.11505 23.0657 1.03018 22.4115 0.99638 21.7499C0.993591 21.6945 1.01863 21.6559 1.04021 21.6332C1.05887 21.6136 1.09951 21.5807 1.16246 21.5807H26.5035C26.5665 21.5807 26.6072 21.6136 26.6258 21.6332C26.6474 21.6559 26.6725 21.6945 26.6696 21.7499C26.6358 22.4116 26.551 23.0658 26.4177 23.7077Z" fill="#228B22"/>
<path d="M18.8575 4.93011C18.93 4.93011 19.0034 4.92055 19.0762 4.90109L22.345 4.02526H22.3451C22.7466 3.91761 23.0081 3.52635 22.9536 3.11516C22.8484 2.32134 22.4929 1.60196 21.9258 1.03485C21.3587 0.467742 20.6394 0.112336 19.8455 0.00708215C19.4347 -0.0470389 19.0431 0.214137 18.9354 0.615762L18.0595 3.88454C17.9819 4.17441 18.0622 4.4741 18.2744 4.68633C18.4333 4.84524 18.6414 4.93011 18.8575 4.93011ZM19.8589 1.01765C20.3766 1.11527 20.8452 1.36296 21.2215 1.73916C21.5977 2.11541 21.8454 2.58398 21.943 3.10168L19.0961 3.86449L19.8589 1.01765Z" fill="#228B22"/>
</svg>
