<svg width="33" height="42" viewBox="0 0 33 42" fill="none" xmlns="http://www.w3.org/2000/svg">
<path d="M12.7652 42C12.6799 42 12.5962 41.9856 12.5124 41.9553C12.196 41.8372 12.0039 41.5174 12.0487 41.186L13.2809 31.9158H8.32597C8.05294 31.9158 7.80303 31.7617 7.68024 31.5182C7.55745 31.2748 7.58345 30.9823 7.74814 30.7633L16.4156 19.2386C16.6164 18.9706 16.9732 18.8756 17.278 19.0081C17.5843 19.1392 17.762 19.4604 17.7071 19.7889L16.4012 27.594H21.3272C21.593 27.594 21.8371 27.7395 21.9628 27.9729C22.0885 28.2063 22.0755 28.4886 21.931 28.7119L13.369 41.6773C13.2318 41.8833 13.0021 42 12.7652 42ZM9.77055 30.4752H14.1043C14.3138 30.4752 14.5102 30.566 14.6475 30.7216C14.7847 30.8757 14.8483 31.0846 14.8208 31.2906L13.8948 38.2602L19.9866 29.0346H15.5489C15.3365 29.0346 15.1357 28.9424 14.997 28.7796C14.8598 28.6183 14.8006 28.4037 14.8367 28.1962L15.7945 22.4655L9.77055 30.4752Z" fill="#228B22"/>
<path d="M29.5139 5.76664V2.35218C30.0815 2.23837 30.4978 1.78311 30.4978 1.17609C30.4978 0.531138 29.968 0 29.3247 0H22.6646C22.0212 0 21.4915 0.531138 21.4915 1.17609C21.4915 1.82104 22.0212 2.35218 22.6646 2.35218V5.80458C21.113 6.14602 19.9778 7.51181 19.9778 9.14316V18.8175C19.9778 20.6764 21.4536 22.194 23.3079 22.2319V23.5218H21.7185C21.4915 23.5218 21.3401 23.6736 21.3401 23.9012C21.3401 24.1288 21.4915 24.2806 21.7185 24.2806H30.8005C31.0276 24.2806 31.179 24.1288 31.179 23.9012C31.179 23.6736 31.0276 23.5218 30.8005 23.5218H29.249V22.2698C31.1033 22.2319 32.5791 20.7144 32.5791 18.8554V9.1811C32.5413 7.39799 31.2168 5.95633 29.5139 5.76664ZM26.9785 4.43879C27.2056 4.43879 27.3569 4.28704 27.3569 4.05941C27.3569 3.83178 27.2056 3.68003 26.9785 3.68003H25.1621C24.9351 3.68003 24.7837 3.83178 24.7837 4.05941C24.7837 4.28704 24.9351 4.43879 25.1621 4.43879H25.6919V5.7287H23.3835V2.39012H28.7571V5.76664H26.4487V4.47673H26.9785V4.43879ZM22.2483 1.17609C22.2483 0.94846 22.4375 0.758768 22.6646 0.758768H29.3247C29.5518 0.758768 29.741 0.94846 29.741 1.17609C29.741 1.40372 29.5518 1.59341 29.3247 1.59341H22.6646C22.4375 1.63135 22.2483 1.44166 22.2483 1.17609ZM23.3835 6.48747H29.1733C30.6492 6.48747 31.8223 7.66356 31.8223 9.14316V12.3679H20.7346V9.14316C20.7346 7.7015 21.9077 6.48747 23.3835 6.48747ZM31.7844 13.1267V14.796H20.7346V13.1267H31.7844ZM24.0647 22.2698H25.8811V23.5218H24.0647V22.2698ZM26.6379 23.5218V22.2698H28.4543V23.5218H26.6379ZM29.1355 21.5111H23.3835C21.9077 21.5111 20.7346 20.335 20.7346 18.8554V15.5927H31.8223V18.8554C31.7844 20.335 30.6113 21.5111 29.1355 21.5111Z" fill="#228B22"/>
<path d="M6.94876 24.4543C5.10648 24.452 3.34026 23.6526 2.03757 22.2315C0.734879 20.8104 0.0021035 18.8836 0 16.8739C0 10.2857 6.38765 3.99311 6.65974 3.72846C6.73922 3.65091 6.84212 3.60803 6.94876 3.60803C7.0554 3.60803 7.1583 3.65091 7.23779 3.72846C7.50988 3.99311 13.8975 10.2857 13.8975 16.8739C13.8954 18.8836 13.1626 20.8104 11.86 22.2315C10.5573 23.6526 8.79104 24.452 6.94876 24.4543ZM6.94876 4.73201C5.70376 6.04205 0.868595 11.4784 0.868595 16.8739C0.868595 18.633 1.50918 20.3201 2.64944 21.564C3.78969 22.808 5.3362 23.5068 6.94876 23.5068C8.56132 23.5068 10.1078 22.808 11.2481 21.564C12.3883 20.3201 13.0289 18.633 13.0289 16.8739C13.0289 11.4784 8.19376 6.04205 6.94876 4.73201Z" fill="#228B22"/>
<path d="M3.87877 21.8486C3.79743 21.8487 3.7175 21.8277 3.64713 21.7879C2.80356 21.31 2.10309 20.6247 1.61555 19.8002C1.12802 18.9758 0.870451 18.041 0.86853 17.0891C0.86853 16.9692 0.917341 16.8542 1.00422 16.7694C1.09111 16.6847 1.20894 16.637 1.33182 16.637C1.45469 16.637 1.57253 16.6847 1.65941 16.7694C1.74629 16.8542 1.7951 16.9692 1.7951 17.0891C1.79674 17.8825 2.01149 18.6616 2.41794 19.3487C2.82439 20.0358 3.40833 20.6069 4.11153 21.0051C4.19984 21.0549 4.26883 21.1318 4.30779 21.2238C4.34675 21.3158 4.35351 21.4178 4.32701 21.5139C4.30051 21.6101 4.24223 21.695 4.16123 21.7555C4.08022 21.816 3.98079 21.8487 3.87877 21.8486Z" fill="#228B22"/>
</svg>
