<svg width="58" height="58" viewBox="0 0 58 58" fill="none" xmlns="http://www.w3.org/2000/svg">
<circle cx="29" cy="29" r="29" fill="#DEFBDD"/>
<path d="M34.6307 38.294C34.6307 39.1324 33.9526 39.812 33.1161 39.812H24.9709C24.1344 39.812 23.4563 39.1324 23.4563 38.294V31.6483H34.6307V38.294ZM35.6405 31.1423C35.6405 30.8629 35.4144 30.6363 35.1356 30.6363H22.9514C22.6726 30.6363 22.4465 30.8629 22.4465 31.1423V38.294C22.4465 39.6913 23.5767 40.824 24.9709 40.824H33.1161C34.5103 40.824 35.6405 39.6913 35.6405 38.294V31.1423Z" fill="#228B22"/>
<path d="M20.1084 32.1395C20.1084 33.523 21.2923 34.6447 22.7528 34.6447C23.0448 34.6447 23.2816 34.4203 23.2816 34.1436C23.2816 33.8669 23.0448 33.6426 22.7528 33.6426C21.8765 33.6426 21.1661 32.9696 21.1661 32.1395C21.1661 31.8628 21.4029 31.6384 21.695 31.6384H22.7528C23.0448 31.6384 23.2816 31.4141 23.2816 31.1374C23.2816 30.8607 23.0448 30.6364 22.7528 30.6364H21.695C20.8188 30.6364 20.1084 31.3093 20.1084 32.1395Z" fill="#228B22"/>
<path d="M36.7539 32.1395C36.7539 32.9696 36.0436 33.6426 35.1673 33.6426C34.8752 33.6426 34.6384 33.8669 34.6384 34.1436C34.6384 34.4203 34.8752 34.6447 35.1673 34.6447C36.6277 34.6447 37.8117 33.523 37.8117 32.1395C37.8117 31.3093 37.1013 30.6364 36.225 30.6364H35.1673C34.8752 30.6364 34.6384 30.8607 34.6384 31.1374C34.6384 31.4141 34.8752 31.6384 35.1673 31.6384H36.225C36.5171 31.6384 36.7539 31.8628 36.7539 32.1395Z" fill="#228B22"/>
<path d="M26.6745 27.3316C26.7882 27.5889 27.0804 27.7015 27.3273 27.583C27.5742 27.4646 27.6823 27.16 27.5686 26.9027L27.3628 26.4368V26.4368C27.1355 25.9222 27.3515 25.313 27.8453 25.0761L27.8685 25.0653C28.3573 24.8463 28.9272 25.0724 29.151 25.5789L29.3568 26.0448C29.4705 26.3021 29.7628 26.4146 30.0097 26.2962C30.2566 26.1778 30.3646 25.8732 30.2509 25.6159L30.0451 25.15L30.0451 25.1499C29.594 24.1288 28.4395 23.6776 27.4569 24.1334L27.4337 24.1443C26.4461 24.6181 26.0141 25.8365 26.4687 26.8657L26.6745 27.3316Z" fill="#228B22"/>
<path d="M22.4933 29.1669C22.6113 29.4254 22.9153 29.5388 23.1725 29.4202L34.3396 24.2709C34.5967 24.1523 34.7096 23.8466 34.5916 23.5881C34.4737 23.3297 34.1696 23.2162 33.9125 23.3348L22.7453 28.4841C22.4882 28.6027 22.3754 28.9084 22.4933 29.1669Z" fill="#228B22"/>
<path d="M33.0524 27.5482C33.0524 27.5484 33.0524 27.5485 33.0524 27.5485C33.0524 27.5485 33.0524 27.5479 33.0524 27.5467C33.0525 27.5443 33.0526 27.5396 33.0528 27.5327C33.0533 27.5189 33.0543 27.4969 33.0565 27.4687C33.0609 27.4115 33.0697 27.3324 33.087 27.2459C33.1243 27.0596 33.1855 26.917 33.2536 26.844L33.2602 26.8371V26.8371C33.331 26.7664 33.4768 26.7024 33.669 26.6639C33.7556 26.6466 33.8346 26.6378 33.8918 26.6334C33.92 26.6312 33.942 26.6302 33.9558 26.6297C33.9627 26.6295 33.9675 26.6294 33.9699 26.6293C33.9711 26.6293 33.9717 26.6293 33.9717 26.6293H33.9699C34.2469 26.6292 34.4714 26.4046 34.4714 26.1276C34.4714 25.8506 34.2468 25.626 33.9697 25.6259V26.1276C33.9697 25.626 33.9696 25.6259 33.9695 25.6259H33.9686C33.9682 25.6259 33.9677 25.626 33.9672 25.626C33.9662 25.626 33.965 25.626 33.9637 25.626C33.9609 25.626 33.9575 25.6261 33.9534 25.6261C33.9453 25.6263 33.9345 25.6265 33.9212 25.627C33.8949 25.6279 33.8587 25.6296 33.8148 25.633C33.7279 25.6397 33.6074 25.653 33.4722 25.68C33.2211 25.7303 32.8347 25.8437 32.5508 26.1276V26.1277C32.2668 26.4117 32.1534 26.798 32.1032 27.0491C32.0761 27.1843 32.0628 27.3047 32.0561 27.3917C32.0527 27.4355 32.051 27.4717 32.0501 27.4981C32.0496 27.5113 32.0494 27.5221 32.0492 27.5303C32.0492 27.5344 32.0491 27.5378 32.0491 27.5405C32.0491 27.5419 32.0491 27.5431 32.0491 27.5441C32.0491 27.5443 32.0491 27.5444 32.0491 27.5446L32.0491 27.5464C32.049 27.5488 32.0489 27.5536 32.0487 27.5605C32.0482 27.5743 32.0472 27.5963 32.045 27.6245C32.0406 27.6817 32.0318 27.7608 32.0145 27.8473C31.976 28.0396 31.912 28.1853 31.8413 28.256C31.7705 28.3268 31.6248 28.3908 31.4325 28.4293C31.346 28.4466 31.2669 28.4554 31.2097 28.4598C31.1815 28.462 31.1595 28.463 31.1457 28.4635C31.1388 28.4637 31.134 28.4638 31.1316 28.4638C31.1305 28.4639 31.1299 28.4639 31.1298 28.4639H31.1316C31.1316 28.4639 31.1316 28.4639 31.1316 28.4639C30.8546 28.464 30.6301 28.6886 30.6301 28.9655C30.6301 29.2426 30.8547 29.4672 31.1318 29.4672V29.0294C31.1318 29.4599 31.1319 29.4671 31.132 29.4672H31.1343C31.1353 29.4672 31.1365 29.4672 31.1379 29.4672C31.1406 29.4672 31.144 29.4671 31.1481 29.4671C31.1562 29.4669 31.1671 29.4667 31.1803 29.4662C31.2067 29.4653 31.2429 29.4636 31.2867 29.4602C31.3736 29.4535 31.4941 29.4402 31.6293 29.4131C31.8804 29.3629 32.2668 29.2495 32.5508 28.9655C32.8347 28.6815 32.9481 28.2952 32.9983 28.044C33.0254 27.9089 33.0387 27.7884 33.0454 27.7015C33.0488 27.6577 33.0505 27.6214 33.0514 27.5951C33.0519 27.5818 33.0521 27.571 33.0523 27.5628C33.0523 27.5588 33.0524 27.5553 33.0524 27.5526C33.0524 27.5513 33.0524 27.5501 33.0524 27.5491C33.0524 27.5488 33.0524 27.5485 33.0524 27.5482Z" fill="#228B22"/>
<path d="M36.1639 27.5482C36.1639 27.5484 36.1639 27.5485 36.1639 27.5485C36.1639 27.5485 36.164 27.5479 36.164 27.5467C36.164 27.5443 36.1641 27.5396 36.1644 27.5327C36.1649 27.5189 36.1659 27.4969 36.1682 27.4687C36.1728 27.4115 36.182 27.3324 36.2001 27.2459C36.2389 27.0596 36.3028 26.917 36.3739 26.844L36.3808 26.8371V26.8371C36.4546 26.7664 36.6068 26.7024 36.8074 26.6639C36.8977 26.6466 36.9802 26.6378 37.0398 26.6334C37.0693 26.6312 37.0923 26.6302 37.1067 26.6297C37.1138 26.6295 37.1188 26.6294 37.1213 26.6293C37.1226 26.6293 37.1232 26.6293 37.1232 26.6293H37.1214C37.4104 26.6292 37.6446 26.4046 37.6446 26.1276C37.6446 25.8506 37.4103 25.626 37.1212 25.6259V26.1276C37.1212 25.626 37.121 25.6259 37.1209 25.6259H37.12C37.1195 25.6259 37.1191 25.626 37.1185 25.626C37.1175 25.626 37.1162 25.626 37.1148 25.626C37.112 25.626 37.1084 25.6261 37.1042 25.6261C37.0956 25.6263 37.0844 25.6265 37.0706 25.627C37.043 25.6279 37.0052 25.6296 36.9595 25.633C36.8688 25.6397 36.7431 25.653 36.602 25.68C36.34 25.7303 35.9368 25.8437 35.6405 26.1276V26.1277C35.3441 26.4117 35.2259 26.798 35.1734 27.0491C35.1452 27.1843 35.1313 27.3047 35.1243 27.3917C35.1208 27.4355 35.119 27.4717 35.118 27.4981C35.1175 27.5113 35.1173 27.5221 35.1171 27.5303C35.1171 27.5344 35.117 27.5378 35.117 27.5405C35.117 27.5419 35.117 27.5431 35.117 27.5441C35.117 27.5443 35.117 27.5444 35.117 27.5446L35.117 27.5464C35.1169 27.5488 35.1168 27.5536 35.1166 27.5605C35.1161 27.5743 35.115 27.5963 35.1128 27.6245C35.1082 27.6817 35.0989 27.7608 35.0809 27.8473C35.0408 28.0396 34.974 28.1853 34.9002 28.256C34.8263 28.3268 34.6742 28.3908 34.4736 28.4293C34.3833 28.4466 34.3008 28.4554 34.2411 28.4598C34.2117 28.462 34.1887 28.463 34.1743 28.4635C34.1672 28.4637 34.1622 28.4638 34.1597 28.4638C34.1585 28.4639 34.1579 28.4639 34.1578 28.4639H34.1596C34.1596 28.4639 34.1596 28.4639 34.1596 28.4639C33.8706 28.464 33.6364 28.6886 33.6364 28.9655C33.6364 29.2426 33.8707 29.4672 34.1598 29.4672V29.0294C34.1599 29.4599 34.16 29.4671 34.1601 29.4672H34.1624C34.1635 29.4672 34.1647 29.4672 34.1662 29.4672C34.169 29.4672 34.1726 29.4671 34.1768 29.4671C34.1853 29.4669 34.1966 29.4667 34.2104 29.4662C34.238 29.4653 34.2757 29.4636 34.3215 29.4602C34.4122 29.4535 34.5379 29.4402 34.6789 29.4131C34.941 29.3629 35.3441 29.2495 35.6405 28.9655C35.9368 28.6815 36.0551 28.2952 36.1075 28.044C36.1357 27.9089 36.1497 27.7884 36.1566 27.7015C36.1602 27.6577 36.162 27.6214 36.1629 27.5951C36.1634 27.5818 36.1637 27.571 36.1638 27.5628C36.1639 27.5588 36.1639 27.5553 36.1639 27.5526C36.164 27.5513 36.1639 27.5501 36.1639 27.5491C36.1639 27.5488 36.1639 27.5485 36.1639 27.5482Z" fill="#228B22"/>
<path d="M11 31L27.783 13.7375C28.1757 13.3336 28.8243 13.3336 29.217 13.7375L46 31" stroke="#228B22" stroke-width="1.5" stroke-linecap="round"/>
<path d="M15 32V43C15 43.5523 15.4477 44 16 44H41C41.5523 44 42 43.5523 42 43V32" stroke="#228B22" stroke-width="1.5" stroke-linecap="round"/>
</svg>
