<svg width="42" height="42" viewBox="0 0 42 42" fill="none" xmlns="http://www.w3.org/2000/svg">
<path d="M26.6307 33.294C26.6307 34.1324 25.9526 34.812 25.1161 34.812H16.9709C16.1344 34.812 15.4563 34.1324 15.4563 33.294V26.6483H26.6307V33.294ZM27.6405 26.1423C27.6405 25.8629 27.4144 25.6363 27.1356 25.6363H14.9514C14.6726 25.6363 14.4465 25.8629 14.4465 26.1423V33.294C14.4465 34.6913 15.5767 35.824 16.9709 35.824H25.1161C26.5103 35.824 27.6405 34.6913 27.6405 33.294V26.1423Z" fill="white"/>
<path d="M12.1084 27.1395C12.1084 28.523 13.2923 29.6447 14.7528 29.6447C15.0448 29.6447 15.2816 29.4203 15.2816 29.1436C15.2816 28.8669 15.0448 28.6426 14.7528 28.6426C13.8765 28.6426 13.1661 27.9696 13.1661 27.1395C13.1661 26.8628 13.4029 26.6384 13.695 26.6384H14.7528C15.0448 26.6384 15.2816 26.4141 15.2816 26.1374C15.2816 25.8607 15.0448 25.6364 14.7528 25.6364H13.695C12.8188 25.6364 12.1084 26.3093 12.1084 27.1395Z" fill="white"/>
<path d="M28.7539 27.1395C28.7539 27.9696 28.0436 28.6426 27.1673 28.6426C26.8752 28.6426 26.6384 28.8669 26.6384 29.1436C26.6384 29.4203 26.8752 29.6447 27.1673 29.6447C28.6277 29.6447 29.8117 28.523 29.8117 27.1395C29.8117 26.3093 29.1013 25.6364 28.225 25.6364H27.1673C26.8752 25.6364 26.6384 25.8607 26.6384 26.1374C26.6384 26.4141 26.8752 26.6384 27.1673 26.6384H28.225C28.5171 26.6384 28.7539 26.8628 28.7539 27.1395Z" fill="white"/>
<path d="M18.6745 22.3316C18.7882 22.5889 19.0804 22.7015 19.3273 22.583C19.5742 22.4646 19.6823 22.16 19.5686 21.9027L19.3628 21.4368V21.4368C19.1355 20.9222 19.3515 20.313 19.8453 20.0761L19.8685 20.0653C20.3573 19.8463 20.9272 20.0724 21.151 20.5789L21.3568 21.0448C21.4705 21.3021 21.7628 21.4146 22.0097 21.2962C22.2566 21.1778 22.3646 20.8732 22.2509 20.6159L22.0451 20.15L22.0451 20.1499C21.594 19.1288 20.4395 18.6776 19.4569 19.1334L19.4337 19.1443C18.4461 19.6181 18.0141 20.8365 18.4687 21.8657L18.6745 22.3316Z" fill="white"/>
<path d="M14.4933 24.1669C14.6113 24.4254 14.9153 24.5388 15.1725 24.4202L26.3396 19.2709C26.5967 19.1523 26.7096 18.8466 26.5916 18.5881C26.4737 18.3297 26.1696 18.2162 25.9125 18.3348L14.7453 23.4841C14.4882 23.6027 14.3754 23.9084 14.4933 24.1669Z" fill="white"/>
<path d="M14.0468 23.8791C14.1647 24.1376 14.4688 24.251 14.7259 24.1324L25.8931 18.9831C26.1502 18.8645 26.2631 18.5589 26.1451 18.3004C26.0272 18.0419 25.7231 17.9284 25.4659 18.047L14.2988 23.1963C14.0417 23.3149 13.9288 23.6206 14.0468 23.8791Z" fill="white"/>
<path d="M25.0524 22.5482C25.0524 22.5484 25.0524 22.5485 25.0524 22.5485C25.0524 22.5485 25.0524 22.5479 25.0524 22.5467C25.0525 22.5443 25.0526 22.5396 25.0528 22.5327C25.0533 22.5189 25.0543 22.4969 25.0565 22.4687C25.0609 22.4115 25.0697 22.3324 25.087 22.2459C25.1243 22.0596 25.1855 21.917 25.2536 21.844L25.2602 21.8371V21.8371C25.331 21.7664 25.4768 21.7024 25.669 21.6639C25.7556 21.6466 25.8346 21.6378 25.8918 21.6334C25.92 21.6312 25.942 21.6302 25.9558 21.6297C25.9627 21.6295 25.9675 21.6294 25.9699 21.6293C25.9711 21.6293 25.9717 21.6293 25.9717 21.6293H25.9699C26.2469 21.6292 26.4714 21.4046 26.4714 21.1276C26.4714 20.8506 26.2468 20.626 25.9697 20.6259V21.1276C25.9697 20.626 25.9696 20.6259 25.9695 20.6259H25.9686C25.9682 20.6259 25.9677 20.626 25.9672 20.626C25.9662 20.626 25.965 20.626 25.9637 20.626C25.9609 20.626 25.9575 20.6261 25.9534 20.6261C25.9453 20.6263 25.9345 20.6265 25.9212 20.627C25.8949 20.6279 25.8587 20.6296 25.8148 20.633C25.7279 20.6397 25.6074 20.653 25.4722 20.68C25.2211 20.7303 24.8347 20.8437 24.5508 21.1276V21.1277C24.2668 21.4117 24.1534 21.798 24.1032 22.0491C24.0761 22.1843 24.0628 22.3047 24.0561 22.3917C24.0527 22.4355 24.051 22.4717 24.0501 22.4981C24.0496 22.5113 24.0494 22.5221 24.0492 22.5303C24.0492 22.5344 24.0491 22.5378 24.0491 22.5405C24.0491 22.5419 24.0491 22.5431 24.0491 22.5441C24.0491 22.5443 24.0491 22.5444 24.0491 22.5446L24.0491 22.5464C24.049 22.5488 24.0489 22.5536 24.0487 22.5605C24.0482 22.5743 24.0472 22.5963 24.045 22.6245C24.0406 22.6817 24.0318 22.7608 24.0145 22.8473C23.976 23.0396 23.912 23.1853 23.8413 23.256C23.7705 23.3268 23.6248 23.3908 23.4325 23.4293C23.346 23.4466 23.2669 23.4554 23.2097 23.4598C23.1815 23.462 23.1595 23.463 23.1457 23.4635C23.1388 23.4637 23.134 23.4638 23.1316 23.4638C23.1305 23.4639 23.1299 23.4639 23.1298 23.4639H23.1316C23.1316 23.4639 23.1316 23.4639 23.1316 23.4639C22.8546 23.464 22.6301 23.6886 22.6301 23.9655C22.6301 24.2426 22.8547 24.4672 23.1318 24.4672V24.0294C23.1318 24.4599 23.1319 24.4671 23.132 24.4672H23.1343C23.1353 24.4672 23.1365 24.4672 23.1379 24.4672C23.1406 24.4672 23.144 24.4671 23.1481 24.4671C23.1562 24.4669 23.1671 24.4667 23.1803 24.4662C23.2067 24.4653 23.2429 24.4636 23.2867 24.4602C23.3736 24.4535 23.4941 24.4402 23.6293 24.4131C23.8804 24.3629 24.2668 24.2495 24.5508 23.9655C24.8347 23.6815 24.9481 23.2952 24.9983 23.044C25.0254 22.9089 25.0387 22.7884 25.0454 22.7015C25.0488 22.6577 25.0505 22.6214 25.0514 22.5951C25.0519 22.5818 25.0521 22.571 25.0523 22.5628C25.0523 22.5588 25.0524 22.5553 25.0524 22.5526C25.0524 22.5513 25.0524 22.5501 25.0524 22.5491C25.0524 22.5488 25.0524 22.5485 25.0524 22.5482Z" fill="white"/>
<path d="M28.1639 22.5482C28.1639 22.5484 28.1639 22.5485 28.1639 22.5485C28.1639 22.5485 28.164 22.5479 28.164 22.5467C28.164 22.5443 28.1641 22.5396 28.1644 22.5327C28.1649 22.5189 28.1659 22.4969 28.1682 22.4687C28.1728 22.4115 28.182 22.3324 28.2001 22.2459C28.2389 22.0596 28.3028 21.917 28.3739 21.844L28.3808 21.8371V21.8371C28.4546 21.7664 28.6068 21.7024 28.8074 21.6639C28.8977 21.6466 28.9802 21.6378 29.0398 21.6334C29.0693 21.6312 29.0923 21.6302 29.1067 21.6297C29.1138 21.6295 29.1188 21.6294 29.1213 21.6293C29.1226 21.6293 29.1232 21.6293 29.1232 21.6293H29.1214C29.4104 21.6292 29.6446 21.4046 29.6446 21.1276C29.6446 20.8506 29.4103 20.626 29.1212 20.6259V21.1276C29.1212 20.626 29.121 20.6259 29.1209 20.6259H29.12C29.1195 20.6259 29.1191 20.626 29.1185 20.626C29.1175 20.626 29.1162 20.626 29.1148 20.626C29.112 20.626 29.1084 20.6261 29.1042 20.6261C29.0956 20.6263 29.0844 20.6265 29.0706 20.627C29.043 20.6279 29.0052 20.6296 28.9595 20.633C28.8688 20.6397 28.7431 20.653 28.602 20.68C28.34 20.7303 27.9368 20.8437 27.6405 21.1276V21.1277C27.3441 21.4117 27.2259 21.798 27.1734 22.0491C27.1452 22.1843 27.1313 22.3047 27.1243 22.3917C27.1208 22.4355 27.119 22.4717 27.118 22.4981C27.1175 22.5113 27.1173 22.5221 27.1171 22.5303C27.1171 22.5344 27.117 22.5378 27.117 22.5405C27.117 22.5419 27.117 22.5431 27.117 22.5441C27.117 22.5443 27.117 22.5444 27.117 22.5446L27.117 22.5464C27.1169 22.5488 27.1168 22.5536 27.1166 22.5605C27.1161 22.5743 27.115 22.5963 27.1128 22.6245C27.1082 22.6817 27.0989 22.7608 27.0809 22.8473C27.0408 23.0396 26.974 23.1853 26.9002 23.256C26.8263 23.3268 26.6742 23.3908 26.4736 23.4293C26.3833 23.4466 26.3008 23.4554 26.2411 23.4598C26.2117 23.462 26.1887 23.463 26.1743 23.4635C26.1672 23.4637 26.1622 23.4638 26.1597 23.4638C26.1585 23.4639 26.1579 23.4639 26.1578 23.4639H26.1596C26.1596 23.4639 26.1596 23.4639 26.1596 23.4639C25.8706 23.464 25.6364 23.6886 25.6364 23.9655C25.6364 24.2426 25.8707 24.4672 26.1598 24.4672V24.0294C26.1599 24.4599 26.16 24.4671 26.1601 24.4672H26.1624C26.1635 24.4672 26.1647 24.4672 26.1662 24.4672C26.169 24.4672 26.1726 24.4671 26.1768 24.4671C26.1853 24.4669 26.1966 24.4667 26.2104 24.4662C26.238 24.4653 26.2757 24.4636 26.3215 24.4602C26.4122 24.4535 26.5379 24.4402 26.6789 24.4131C26.941 24.3629 27.3441 24.2495 27.6405 23.9655C27.9368 23.6815 28.0551 23.2952 28.1075 23.044C28.1357 22.9089 28.1497 22.7884 28.1566 22.7015C28.1602 22.6577 28.162 22.6214 28.1629 22.5951C28.1634 22.5818 28.1637 22.571 28.1638 22.5628C28.1639 22.5588 28.1639 22.5553 28.1639 22.5526C28.164 22.5513 28.1639 22.5501 28.1639 22.5491C28.1639 22.5488 28.1639 22.5485 28.1639 22.5482Z" fill="white"/>
<path d="M3 26L19.783 8.73748C20.1757 8.33359 20.8243 8.33359 21.217 8.73748L38 26" stroke="white" stroke-width="1.5" stroke-linecap="round"/>
<path d="M7 27V38C7 38.5523 7.44772 39 8 39H33C33.5523 39 34 38.5523 34 38V27" stroke="white" stroke-width="1.5" stroke-linecap="round"/>
</svg>
