<svg width="33" height="35" viewBox="0 0 33 35" fill="none" xmlns="http://www.w3.org/2000/svg">
<mask id="path-1-inside-1_109_894" fill="white">
<path d="M15.285 24.4475C14.1028 24.3289 12.9494 24.0105 11.8738 23.5059L16.3333 14L15.285 24.4475Z"/>
</mask>
<path d="M15.285 24.4475C14.1028 24.3289 12.9494 24.0105 11.8738 23.5059L16.3333 14L15.285 24.4475Z" fill="#C7C7C7" stroke="white" stroke-width="2" mask="url(#path-1-inside-1_109_894)"/>
<path d="M3.66699 0.5H28.999C30.744 0.5 32.167 1.92366 32.167 3.6748V31.3252C32.167 33.0763 30.744 34.5 28.999 34.5H3.66699C1.92213 34.4998 0.50003 33.0762 0.5 31.3252V3.6748C0.5 1.92376 1.9221 0.500162 3.66699 0.5ZM0.626953 31.3252C0.626983 33.004 1.98909 34.3709 3.66699 34.3711H28.999C30.677 34.3711 32.0401 33.0041 32.04 31.3252V27.4932H0.626953V31.3252ZM8.38965 29.3223C9.27369 29.3223 9.99593 30.0434 9.99609 30.9316C9.99609 31.82 9.27379 32.542 8.38965 32.542C7.50567 32.5419 6.78418 31.8199 6.78418 30.9316C6.78435 30.0435 7.50577 29.3224 8.38965 29.3223ZM24.2764 29.3223C25.1602 29.3224 25.8817 30.0435 25.8818 30.9316C25.8818 31.8199 25.1603 32.5418 24.2764 32.542C23.3922 32.542 22.6699 31.82 22.6699 30.9316C22.6701 30.0434 23.3923 29.3223 24.2764 29.3223ZM20.2871 32.167C20.1846 32.2466 20.0577 32.2969 19.9189 32.2969H12.7871C12.6483 32.2969 12.5215 32.2467 12.4189 32.167H20.2871ZM8.38965 29.4512C7.57284 29.4513 6.91134 30.1157 6.91113 30.9316C6.91113 31.7478 7.57271 32.413 8.38965 32.4131C9.20662 32.4131 9.86914 31.7479 9.86914 30.9316C9.86893 30.1156 9.20649 29.4512 8.38965 29.4512ZM24.2764 29.4512C23.4595 29.4512 22.7971 30.1156 22.7969 30.9316C22.7969 31.7479 23.4594 32.4131 24.2764 32.4131C25.0932 32.4129 25.7549 31.7477 25.7549 30.9316C25.7547 30.1157 25.0931 29.4513 24.2764 29.4512ZM20.3975 29.8057C20.4763 29.9081 20.5244 30.0356 20.5244 30.1748V31.6895C20.5243 31.8281 20.4757 31.9544 20.3975 32.0566V29.8057ZM12.3086 32.0547C12.231 31.9527 12.1817 31.8275 12.1816 31.6895V30.1748C12.1817 30.0359 12.2301 29.9089 12.3086 29.8066V32.0547ZM3.86328 30.8672H4.41895C4.45284 30.8672 4.48222 30.8953 4.48242 30.9316C4.48242 30.9682 4.45296 30.9961 4.41895 30.9961H3.86328C3.82927 30.9961 3.7998 30.9682 3.7998 30.9316C3.80001 30.8953 3.82939 30.8672 3.86328 30.8672ZM28.4463 30.8672H29.002C29.0359 30.8672 29.0652 30.8953 29.0654 30.9316C29.0654 30.9682 29.036 30.9961 29.002 30.9961H28.4463C28.4123 30.9961 28.3828 30.9682 28.3828 30.9316C28.383 30.8953 28.4124 30.8672 28.4463 30.8672ZM12.7871 29.5674H19.9189C20.0575 29.5674 20.1847 29.6168 20.2871 29.6963H12.4189C12.5214 29.6167 12.6485 29.5674 12.7871 29.5674ZM3.66699 0.628906C1.98914 0.629068 0.626953 1.99606 0.626953 3.6748V27.3643H32.04V3.6748C32.04 1.99597 30.677 0.628906 28.999 0.628906H3.66699ZM16.333 4.73828C21.5743 4.73828 25.8416 9.01218 25.8418 14.2666C25.8418 19.5211 21.5744 23.7959 16.333 23.7959C11.0918 23.7957 6.8252 19.521 6.8252 14.2666C6.82542 9.01229 11.0918 4.73846 16.333 4.73828Z" fill="black" stroke="white"/>
<circle cx="16.3333" cy="14" r="10" fill="#228B22" stroke="white"/>
<circle cx="16.3333" cy="14" r="11.4167" stroke="white" stroke-width="0.5" stroke-dasharray="1 1"/>
<mask id="path-5-inside-2_109_894" fill="white">
<path d="M26.8333 14C26.8333 15.3789 26.5617 16.7443 26.034 18.0182C25.5063 19.2921 24.7329 20.4496 23.7579 21.4246C22.7829 22.3996 21.6253 23.1731 20.3514 23.7007C19.0775 24.2284 17.7121 24.5 16.3333 24.5V14H26.8333Z"/>
</mask>
<path d="M26.8333 14C26.8333 15.3789 26.5617 16.7443 26.034 18.0182C25.5063 19.2921 24.7329 20.4496 23.7579 21.4246C22.7829 22.3996 21.6253 23.1731 20.3514 23.7007C19.0775 24.2284 17.7121 24.5 16.3333 24.5V14H26.8333Z" fill="#DEFBDD" stroke="white" stroke-width="2" mask="url(#path-5-inside-2_109_894)"/>
<mask id="path-6-inside-3_109_894" fill="white">
<path d="M21.8195 22.9527C20.6439 23.6732 19.3378 24.155 17.9759 24.3707C16.614 24.5864 15.2229 24.5318 13.8821 24.2099L16.3333 14L21.8195 22.9527Z"/>
</mask>
<path d="M21.8195 22.9527C20.6439 23.6732 19.3378 24.155 17.9759 24.3707C16.614 24.5864 15.2229 24.5318 13.8821 24.2099L16.3333 14L21.8195 22.9527Z" fill="#F5F5F5" stroke="white" stroke-width="2" mask="url(#path-6-inside-3_109_894)"/>
<path d="M30.0903 4.37571C30.0725 4.34398 30.0466 4.31755 30.0152 4.29915C29.9838 4.28074 29.9481 4.27104 29.9117 4.27103H28.6882L28.8978 2.67271C28.9039 2.62634 28.8939 2.57928 28.8694 2.5394C28.8449 2.49952 28.8075 2.46923 28.7633 2.45359C28.7192 2.43795 28.671 2.43791 28.6268 2.45348C28.5826 2.46905 28.5451 2.49928 28.5206 2.53912L26.8908 5.18534C26.8717 5.21629 26.8613 5.25176 26.8605 5.28809C26.8598 5.32441 26.8687 5.36028 26.8865 5.39199C26.9042 5.42371 26.9302 5.45012 26.9616 5.4685C26.9929 5.48689 27.0287 5.49658 27.0651 5.49658H28.2684L28.0801 7.09745C28.0747 7.14367 28.0852 7.19036 28.11 7.22979C28.1347 7.26921 28.1722 7.29902 28.2163 7.31427C28.2603 7.32952 28.3082 7.32931 28.3521 7.31365C28.396 7.298 28.4333 7.26786 28.4576 7.22821L30.086 4.58229C30.1051 4.55135 30.1155 4.51589 30.1162 4.47958C30.117 4.44327 30.108 4.40741 30.0903 4.37571ZM28.5948 6.22509L28.7017 5.31627C28.705 5.28762 28.7023 5.25859 28.6937 5.23107C28.685 5.20355 28.6706 5.17818 28.6514 5.15662C28.6322 5.13506 28.6086 5.1178 28.5823 5.10599C28.5559 5.09417 28.5274 5.08806 28.4985 5.08806H27.4311L28.3678 3.56713L28.2523 4.44878C28.2485 4.4776 28.2509 4.50689 28.2594 4.53469C28.2678 4.5625 28.2822 4.58818 28.3014 4.61002C28.3206 4.63186 28.3442 4.64936 28.3707 4.66135C28.3972 4.67334 28.426 4.67954 28.4551 4.67955H29.5459L28.5948 6.22509Z" fill="white"/>
</svg>
